solid 
 facet normal -8.944272e-01  0.000000e+00 -4.472136e-01
   outer loop
     vertex  2.000000e-01  2.500000e-01 -2.449294e-17
     vertex  0.000000e+00 -2.500000e-01  4.000000e-01
     vertex  0.000000e+00  2.500000e-01  4.000000e-01
   endloop
 endfacet
 facet normal -8.944272e-01 -4.965068e-17 -4.472136e-01
   outer loop
     vertex  2.000000e-01  2.500000e-01 -2.449294e-17
     vertex  2.000000e-01 -2.500000e-01  3.101822e-17
     vertex  0.000000e+00 -2.500000e-01  4.000000e-01
   endloop
 endfacet
 facet normal -4.198891e-01  1.007611e-16  9.075754e-01
   outer loop
     vertex  9.368169e-02  2.500000e-01 -1.767024e-01
     vertex  7.402763e-02 -2.500000e-01 -1.857953e-01
     vertex  9.368169e-02 -2.500000e-01 -1.767024e-01
   endloop
 endfacet
 facet normal -5.155539e-01  9.512494e-17  8.568572e-01
   outer loop
     vertex  1.122374e-01  2.500000e-01 -1.655378e-01
     vertex  9.368169e-02  2.500000e-01 -1.767024e-01
     vertex  9.368169e-02 -2.500000e-01 -1.767024e-01
   endloop
 endfacet
 facet normal -5.155539e-01  9.513026e-17  8.568572e-01
   outer loop
     vertex  1.122374e-01  2.500000e-01 -1.655378e-01
     vertex  9.368169e-02 -2.500000e-01 -1.767024e-01
     vertex  1.122374e-01 -2.500000e-01 -1.655378e-01
   endloop
 endfacet
 facet normal -6.051742e-01  8.761507e-17  7.960931e-01
   outer loop
     vertex  1.294773e-01  2.500000e-01 -1.524324e-01
     vertex  1.122374e-01  2.500000e-01 -1.655378e-01
     vertex  1.122374e-01 -2.500000e-01 -1.655378e-01
   endloop
 endfacet
 facet normal -6.051742e-01  8.838409e-17  7.960931e-01
   outer loop
     vertex  1.294773e-01  2.500000e-01 -1.524324e-01
     vertex  1.122374e-01 -2.500000e-01 -1.655378e-01
     vertex  1.294773e-01 -2.500000e-01 -1.524324e-01
   endloop
 endfacet
 facet normal  9.985334e-01  5.945309e-18  5.413891e-02
   outer loop
     vertex -1.988276e-01  2.500000e-01 -2.162380e-02
     vertex -2.000000e-01  2.500000e-01 -2.775558e-17
     vertex -2.000000e-01 -2.500000e-01  2.775558e-17
   endloop
 endfacet
 facet normal  9.985334e-01  6.010626e-18  5.413891e-02
   outer loop
     vertex -1.988276e-01  2.500000e-01 -2.162380e-02
     vertex -2.000000e-01 -2.500000e-01  2.775558e-17
     vertex -1.988276e-01 -2.500000e-01 -2.162380e-02
   endloop
 endfacet
 facet normal -6.876995e-01  8.260850e-17  7.259955e-01
   outer loop
     vertex  1.451991e-01  2.500000e-01 -1.375399e-01
     vertex  1.294773e-01  2.500000e-01 -1.524324e-01
     vertex  1.294773e-01 -2.500000e-01 -1.524324e-01
   endloop
 endfacet
 facet normal -6.876995e-01  8.060169e-17  7.259955e-01
   outer loop
     vertex  1.451991e-01  2.500000e-01 -1.375399e-01
     vertex  1.294773e-01 -2.500000e-01 -1.524324e-01
     vertex  1.451991e-01 -2.500000e-01 -1.375399e-01
   endloop
 endfacet
 facet normal  9.868265e-01  1.796141e-17  1.617820e-01
   outer loop
     vertex -1.953241e-01  2.500000e-01 -4.299409e-02
     vertex -1.988276e-01 -2.500000e-01 -2.162380e-02
     vertex -1.953241e-01 -2.500000e-01 -4.299409e-02
   endloop
 endfacet
 facet normal  9.868265e-01  1.877466e-17  1.617820e-01
   outer loop
     vertex -1.953241e-01  2.500000e-01 -4.299409e-02
     vertex -1.988276e-01  2.500000e-01 -2.162380e-02
     vertex -1.988276e-01 -2.500000e-01 -2.162380e-02
   endloop
 endfacet
 facet normal -7.621621e-01  7.259535e-17  6.473863e-01
   outer loop
     vertex  1.592186e-01  2.500000e-01 -1.210348e-01
     vertex  1.451991e-01  2.500000e-01 -1.375399e-01
     vertex  1.451991e-01 -2.500000e-01 -1.375399e-01
   endloop
 endfacet
 facet normal -7.621621e-01  7.187432e-17  6.473863e-01
   outer loop
     vertex  1.592186e-01  2.500000e-01 -1.210348e-01
     vertex  1.451991e-01 -2.500000e-01 -1.375399e-01
     vertex  1.592186e-01 -2.500000e-01 -1.210348e-01
   endloop
 endfacet
 facet normal  9.635500e-01  2.970161e-17  2.675283e-01
   outer loop
     vertex -1.895306e-01  2.500000e-01 -6.386031e-02
     vertex -1.953241e-01 -2.500000e-01 -4.299409e-02
     vertex -1.895306e-01 -2.500000e-01 -6.386031e-02
   endloop
 endfacet
 facet normal  9.635500e-01  2.878781e-17  2.675283e-01
   outer loop
     vertex -1.895306e-01  2.500000e-01 -6.386031e-02
     vertex -1.953241e-01  2.500000e-01 -4.299409e-02
     vertex -1.953241e-01 -2.500000e-01 -4.299409e-02
   endloop
 endfacet
 facet normal -8.276890e-01  6.230428e-17  5.611871e-01
   outer loop
     vertex  1.713714e-01  2.500000e-01 -1.031108e-01
     vertex  1.592186e-01 -2.500000e-01 -1.210348e-01
     vertex  1.713714e-01 -2.500000e-01 -1.031108e-01
   endloop
 endfacet
 facet normal -8.276890e-01  6.258220e-17  5.611871e-01
   outer loop
     vertex  1.713714e-01  2.500000e-01 -1.031108e-01
     vertex  1.592186e-01  2.500000e-01 -1.210348e-01
     vertex  1.592186e-01 -2.500000e-01 -1.210348e-01
   endloop
 endfacet
 facet normal  9.289767e-01  4.109359e-17  3.701382e-01
   outer loop
     vertex -1.815151e-01  2.500000e-01 -8.397782e-02
     vertex -1.895306e-01 -2.500000e-01 -6.386031e-02
     vertex -1.815151e-01 -2.500000e-01 -8.397782e-02
   endloop
 endfacet
 facet normal  9.289767e-01  4.005261e-17  3.701382e-01
   outer loop
     vertex -1.815151e-01  2.500000e-01 -8.397782e-02
     vertex -1.895306e-01  2.500000e-01 -6.386031e-02
     vertex -1.895306e-01 -2.500000e-01 -6.386031e-02
   endloop
 endfacet
 facet normal -8.835120e-01  5.200378e-17  4.684084e-01
   outer loop
     vertex  1.815151e-01  2.500000e-01 -8.397782e-02
     vertex  1.713714e-01 -2.500000e-01 -1.031108e-01
     vertex  1.815151e-01 -2.500000e-01 -8.397782e-02
   endloop
 endfacet
 facet normal -8.835120e-01  5.256904e-17  4.684084e-01
   outer loop
     vertex  1.815151e-01  2.500000e-01 -8.397782e-02
     vertex  1.713714e-01  2.500000e-01 -1.031108e-01
     vertex  1.713714e-01 -2.500000e-01 -1.031108e-01
   endloop
 endfacet
 facet normal  8.835120e-01  5.200378e-17  4.684084e-01
   outer loop
     vertex -1.713714e-01  2.500000e-01 -1.031108e-01
     vertex -1.815151e-01 -2.500000e-01 -8.397782e-02
     vertex -1.713714e-01 -2.500000e-01 -1.031108e-01
   endloop
 endfacet
 facet normal  8.835120e-01  5.256904e-17  4.684084e-01
   outer loop
     vertex -1.713714e-01  2.500000e-01 -1.031108e-01
     vertex -1.815151e-01  2.500000e-01 -8.397782e-02
     vertex -1.815151e-01 -2.500000e-01 -8.397782e-02
   endloop
 endfacet
 facet normal -9.289767e-01  4.109359e-17  3.701382e-01
   outer loop
     vertex  1.895306e-01  2.500000e-01 -6.386031e-02
     vertex  1.815151e-01 -2.500000e-01 -8.397782e-02
     vertex  1.895306e-01 -2.500000e-01 -6.386031e-02
   endloop
 endfacet
 facet normal  8.276890e-01  6.230428e-17  5.611871e-01
   outer loop
     vertex -1.592186e-01  2.500000e-01 -1.210348e-01
     vertex -1.713714e-01 -2.500000e-01 -1.031108e-01
     vertex -1.592186e-01 -2.500000e-01 -1.210348e-01
   endloop
 endfacet
 facet normal -9.289767e-01  4.005261e-17  3.701382e-01
   outer loop
     vertex  1.895306e-01  2.500000e-01 -6.386031e-02
     vertex  1.815151e-01  2.500000e-01 -8.397782e-02
     vertex  1.815151e-01 -2.500000e-01 -8.397782e-02
   endloop
 endfacet
 facet normal  8.276890e-01  6.258220e-17  5.611871e-01
   outer loop
     vertex -1.592186e-01  2.500000e-01 -1.210348e-01
     vertex -1.713714e-01  2.500000e-01 -1.031108e-01
     vertex -1.713714e-01 -2.500000e-01 -1.031108e-01
   endloop
 endfacet
 facet normal -9.635500e-01  2.970161e-17  2.675283e-01
   outer loop
     vertex  1.953241e-01  2.500000e-01 -4.299409e-02
     vertex  1.895306e-01 -2.500000e-01 -6.386031e-02
     vertex  1.953241e-01 -2.500000e-01 -4.299409e-02
   endloop
 endfacet
 facet normal  7.621621e-01  7.187432e-17  6.473863e-01
   outer loop
     vertex -1.451991e-01  2.500000e-01 -1.375399e-01
     vertex -1.592186e-01 -2.500000e-01 -1.210348e-01
     vertex -1.451991e-01 -2.500000e-01 -1.375399e-01
   endloop
 endfacet
 facet normal -9.635500e-01  3.003945e-17  2.675283e-01
   outer loop
     vertex  1.953241e-01  2.500000e-01 -4.299409e-02
     vertex  1.895306e-01  2.500000e-01 -6.386031e-02
     vertex  1.895306e-01 -2.500000e-01 -6.386031e-02
   endloop
 endfacet
 facet normal  7.621621e-01  7.009206e-17  6.473863e-01
   outer loop
     vertex -1.451991e-01  2.500000e-01 -1.375399e-01
     vertex -1.592186e-01  2.500000e-01 -1.210348e-01
     vertex -1.592186e-01 -2.500000e-01 -1.210348e-01
   endloop
 endfacet
 facet normal -9.868265e-01  1.796141e-17  1.617820e-01
   outer loop
     vertex  1.988276e-01  2.500000e-01 -2.162380e-02
     vertex  1.953241e-01 -2.500000e-01 -4.299409e-02
     vertex  1.988276e-01 -2.500000e-01 -2.162380e-02
   endloop
 endfacet
 facet normal -9.868265e-01  1.752301e-17  1.617820e-01
   outer loop
     vertex  1.988276e-01  2.500000e-01 -2.162380e-02
     vertex  1.953241e-01  2.500000e-01 -4.299409e-02
     vertex  1.953241e-01 -2.500000e-01 -4.299409e-02
   endloop
 endfacet
 facet normal  6.876995e-01  8.060169e-17  7.259955e-01
   outer loop
     vertex -1.294773e-01  2.500000e-01 -1.524324e-01
     vertex -1.451991e-01 -2.500000e-01 -1.375399e-01
     vertex -1.294773e-01 -2.500000e-01 -1.524324e-01
   endloop
 endfacet
 facet normal  6.876995e-01  8.010521e-17  7.259955e-01
   outer loop
     vertex -1.294773e-01  2.500000e-01 -1.524324e-01
     vertex -1.451991e-01  2.500000e-01 -1.375399e-01
     vertex -1.451991e-01 -2.500000e-01 -1.375399e-01
   endloop
 endfacet
 facet normal -9.985334e-01  6.010626e-18  5.413891e-02
   outer loop
     vertex  2.000000e-01  2.500000e-01 -2.449294e-17
     vertex  1.988276e-01 -2.500000e-01 -2.162380e-02
     vertex  2.000000e-01 -2.500000e-01  3.101822e-17
   endloop
 endfacet
 facet normal -9.985334e-01  5.945309e-18  5.413891e-02
   outer loop
     vertex  2.000000e-01  2.500000e-01 -2.449294e-17
     vertex  1.988276e-01  2.500000e-01 -2.162380e-02
     vertex  1.988276e-01 -2.500000e-01 -2.162380e-02
   endloop
 endfacet
 facet normal  6.051742e-01  8.838409e-17  7.960931e-01
   outer loop
     vertex -1.122374e-01  2.500000e-01 -1.655378e-01
     vertex -1.294773e-01 -2.500000e-01 -1.524324e-01
     vertex -1.122374e-01 -2.500000e-01 -1.655378e-01
   endloop
 endfacet
 facet normal  6.051742e-01  8.761507e-17  7.960931e-01
   outer loop
     vertex -1.122374e-01  2.500000e-01 -1.655378e-01
     vertex -1.294773e-01  2.500000e-01 -1.524324e-01
     vertex -1.294773e-01 -2.500000e-01 -1.524324e-01
   endloop
 endfacet
 facet normal  5.155539e-01  9.512494e-17  8.568572e-01
   outer loop
     vertex -9.368169e-02  2.500000e-01 -1.767024e-01
     vertex -1.122374e-01  2.500000e-01 -1.655378e-01
     vertex -1.122374e-01 -2.500000e-01 -1.655378e-01
   endloop
 endfacet
 facet normal  5.155539e-01  9.513026e-17  8.568572e-01
   outer loop
     vertex -9.368169e-02  2.500000e-01 -1.767024e-01
     vertex -1.122374e-01 -2.500000e-01 -1.655378e-01
     vertex -9.368169e-02 -2.500000e-01 -1.767024e-01
   endloop
 endfacet
 facet normal  4.198891e-01  1.026348e-16  9.075754e-01
   outer loop
     vertex -7.402763e-02  2.500000e-01 -1.857953e-01
     vertex -9.368169e-02  2.500000e-01 -1.767024e-01
     vertex -9.368169e-02 -2.500000e-01 -1.767024e-01
   endloop
 endfacet
 facet normal  4.198891e-01  1.007611e-16  9.075754e-01
   outer loop
     vertex -7.402763e-02  2.500000e-01 -1.857953e-01
     vertex -9.368169e-02 -2.500000e-01 -1.767024e-01
     vertex -7.402763e-02 -2.500000e-01 -1.857953e-01
   endloop
 endfacet
 facet normal  3.193015e-01  1.051381e-16  9.476532e-01
   outer loop
     vertex -5.350567e-02  2.500000e-01 -1.927100e-01
     vertex -7.402763e-02  2.500000e-01 -1.857953e-01
     vertex -7.402763e-02 -2.500000e-01 -1.857953e-01
   endloop
 endfacet
 facet normal  3.193015e-01  1.052106e-16  9.476532e-01
   outer loop
     vertex -5.350567e-02  2.500000e-01 -1.927100e-01
     vertex -7.402763e-02 -2.500000e-01 -1.857953e-01
     vertex -5.350567e-02 -2.500000e-01 -1.927100e-01
   endloop
 endfacet
 facet normal  2.149704e-01  1.088930e-16  9.766206e-01
   outer loop
     vertex -3.235640e-02  2.500000e-01 -1.973653e-01
     vertex -5.350567e-02  2.500000e-01 -1.927100e-01
     vertex -5.350567e-02 -2.500000e-01 -1.927100e-01
   endloop
 endfacet
 facet normal  2.149704e-01  1.084267e-16  9.766206e-01
   outer loop
     vertex -3.235640e-02  2.500000e-01 -1.973653e-01
     vertex -5.350567e-02 -2.500000e-01 -1.927100e-01
     vertex -3.235640e-02 -2.500000e-01 -1.973653e-01
   endloop
 endfacet
 facet normal  1.081190e-01  1.101447e-16  9.941380e-01
   outer loop
     vertex -1.082778e-02  2.500000e-01 -1.997067e-01
     vertex -3.235640e-02  2.500000e-01 -1.973653e-01
     vertex -3.235640e-02 -2.500000e-01 -1.973653e-01
   endloop
 endfacet
 facet normal  1.081190e-01  1.103715e-16  9.941380e-01
   outer loop
     vertex -1.082778e-02  2.500000e-01 -1.997067e-01
     vertex -3.235640e-02 -2.500000e-01 -1.973653e-01
     vertex -1.082778e-02 -2.500000e-01 -1.997067e-01
   endloop
 endfacet
 facet normal  0.000000e+00  1.110223e-16  1.000000e+00
   outer loop
     vertex  1.082778e-02  2.500000e-01 -1.997067e-01
     vertex -1.082778e-02  2.500000e-01 -1.997067e-01
     vertex -1.082778e-02 -2.500000e-01 -1.997067e-01
   endloop
 endfacet
 facet normal  0.000000e+00  1.110223e-16  1.000000e+00
   outer loop
     vertex  1.082778e-02  2.500000e-01 -1.997067e-01
     vertex -1.082778e-02 -2.500000e-01 -1.997067e-01
     vertex  1.082778e-02 -2.500000e-01 -1.997067e-01
   endloop
 endfacet
 facet normal -1.081190e-01  1.101447e-16  9.941380e-01
   outer loop
     vertex  3.235640e-02  2.500000e-01 -1.973653e-01
     vertex  1.082778e-02  2.500000e-01 -1.997067e-01
     vertex  1.082778e-02 -2.500000e-01 -1.997067e-01
   endloop
 endfacet
 facet normal -1.081190e-01  1.103715e-16  9.941380e-01
   outer loop
     vertex  3.235640e-02  2.500000e-01 -1.973653e-01
     vertex  1.082778e-02 -2.500000e-01 -1.997067e-01
     vertex  3.235640e-02 -2.500000e-01 -1.973653e-01
   endloop
 endfacet
 facet normal -2.149704e-01  1.088930e-16  9.766206e-01
   outer loop
     vertex  5.350567e-02  2.500000e-01 -1.927100e-01
     vertex  3.235640e-02  2.500000e-01 -1.973653e-01
     vertex  3.235640e-02 -2.500000e-01 -1.973653e-01
   endloop
 endfacet
 facet normal -2.149704e-01  1.084267e-16  9.766206e-01
   outer loop
     vertex  5.350567e-02  2.500000e-01 -1.927100e-01
     vertex  3.235640e-02 -2.500000e-01 -1.973653e-01
     vertex  5.350567e-02 -2.500000e-01 -1.927100e-01
   endloop
 endfacet
 facet normal -3.193015e-01  1.051381e-16  9.476532e-01
   outer loop
     vertex  7.402763e-02  2.500000e-01 -1.857953e-01
     vertex  5.350567e-02  2.500000e-01 -1.927100e-01
     vertex  5.350567e-02 -2.500000e-01 -1.927100e-01
   endloop
 endfacet
 facet normal -3.193015e-01  1.052106e-16  9.476532e-01
   outer loop
     vertex  7.402763e-02  2.500000e-01 -1.857953e-01
     vertex  5.350567e-02 -2.500000e-01 -1.927100e-01
     vertex  7.402763e-02 -2.500000e-01 -1.857953e-01
   endloop
 endfacet
 facet normal -4.198891e-01  1.026348e-16  9.075754e-01
   outer loop
     vertex  9.368169e-02  2.500000e-01 -1.767024e-01
     vertex  7.402763e-02  2.500000e-01 -1.857953e-01
     vertex  7.402763e-02 -2.500000e-01 -1.857953e-01
   endloop
 endfacet
 facet normal  8.944272e-01  0.000000e+00 -4.472136e-01
   outer loop
     vertex -2.000000e-01  2.500000e-01 -2.775558e-17
     vertex  0.000000e+00  2.500000e-01  4.000000e-01
     vertex  0.000000e+00 -2.500000e-01  4.000000e-01
   endloop
 endfacet
 facet normal  8.944272e-01 -4.965068e-17 -4.472136e-01
   outer loop
     vertex -2.000000e-01  2.500000e-01 -2.775558e-17
     vertex  0.000000e+00 -2.500000e-01  4.000000e-01
     vertex -2.000000e-01 -2.500000e-01  2.775558e-17
   endloop
 endfacet
endsolid
